PathFileType	4	(X/Y/Z)	Patient4_TMGait_0pt2_02_right_15.trc.trc
DataRate	CameraRate	NumFrames	NumMarkers	Units	OrigDataRate	OrigDataStartFrame	OrigNumFrames
43.343653250774	43.343653250774	6	33	mm	43.343653250774	106	       141
Frame#	Time	R.Midfoot.Superior			Sacral			L.Shoulder			Chest			R.Shoulder			Neck			R.ASIS			L.ASIS			R.Thigh.Superior			R.Thigh.Lateral			R.Thigh.Inferior			R.Patella			L.Thigh.Superior			L.Thigh.Lateral			L.Thigh.Inferior			L.Patella			L.Shank.Superior			L.Shank.Lateral			L.Shank.Inferior			R.Shank.Superior			R.Shank.Lateral			R.Shank.Inferior			R.Heel			R.Midfoot.Lateral			R.Toe			L.Heel			L.Midfoot.Lateral			L.Midfoot.Superior			L.Toe			L.Elbow			L.Wrist			R.Elbow			R.Wrist			
		X1	Y1	Z1	X2	Y2	Z2	X3	Y3	Z3	X4	Y4	Z4	X5	Y5	Z5	X6	Y6	Z6	X7	Y7	Z7	X8	Y8	Z8	X9	Y9	Z9	X10	Y10	Z10	X11	Y11	Z11	X12	Y12	Z12	X13	Y13	Z13	X14	Y14	Z14	X15	Y15	Z15	X16	Y16	Z16	X17	Y17	Z17	X18	Y18	Z18	X19	Y19	Z19	X20	Y20	Z20	X21	Y21	Z21	X22	Y22	Z22	X23	Y23	Z23	X24	Y24	Z24	X25	Y25	Z25	X26	Y26	Z26	X27	Y27	Z27	X28	Y28	Z28	X29	Y29	Z29	X30	Y30	Z30	X31	Y31	Z31	X32	Y32	Z32	X33	Y33	Z33	

106	35.642500000000	968.892869405914	158.808246550935	597.552279570734	859.613742027548	992.444912943147	399.708943390723	1082.582950432283	1412.903682843391	220.693840302873	1164.333007470081	1337.970262821677	390.328423324043	1073.183558003620	1418.999482407456	555.428974871851	1052.271446166906	1476.767938568257	376.977754138821	1086.514217308151	927.500494878497	523.256486757898	1079.380486526748	941.320424992252	248.604523083153	1168.853017293580	758.672939087169	496.655289347615	1131.856311342822	641.669332866805	579.908264698177	1218.208469536864	595.919468837152	499.851397993477	1235.258314815166	483.381875820647	529.886943338310	1143.125216187984	741.816869894754	294.313901447231	1073.880581971284	611.799917960682	241.990700944344	1162.767052412250	548.971093578558	317.535210315128	1169.623157936210	473.762974590095	329.749342523635	1128.490628402080	398.633881757598	325.177192547857	1026.873310135182	296.377892685184	271.026660553635	1050.410714624885	183.211405794191	349.805823753394	1155.193921399361	412.356412643368	545.165664694334	1035.705959648687	385.131901991859	617.276160666568	1009.075097976009	275.138296811246	575.006336559090	800.471400139321	227.503572565228	568.503150325236	861.302055760468	163.654347909388	637.239387460887	1029.025103296341	42.519913456749	617.122867695513	899.344259687925	40.080291826045	386.310998142430	977.023814171978	36.448372912051	309.544335868274	1060.328414139278	95.621306945415	340.766363805988	1188.998071303858	40.503817109289	316.997314215003	1194.372196863154	1108.280663867968	60.695634776615	1416.633884214793	968.497182361969	53.994973520466	945.163387927309	1091.455866869509	661.655851536050	937.444876550090	829.799531137298	677.897751326050	
107	35.665571428571	991.173320588606	156.997835304199	597.782782291252	858.641856729616	993.783289179185	395.551885735937	1085.895557178446	1414.168098415483	220.450464199820	1163.489628740353	1339.643717937102	392.133986986254	1068.277491030607	1421.089076436341	554.676188804264	1051.806833835886	1478.092773897313	376.017384929759	1083.783090202491	929.515399029287	522.923090801790	1080.551836761153	942.479803729339	248.365370859185	1168.606274488300	763.492489254169	495.385407990250	1134.428348461183	645.759399676875	578.732749110413	1221.194004670055	601.634066030731	498.290579278000	1241.456403544670	490.260186549472	528.381171946114	1141.846524665279	741.327458416292	294.099274292644	1071.436185929724	612.038009964578	241.411219445064	1158.700139357469	548.408521012984	317.831436395779	1164.692749651405	473.530139945419	330.321337784338	1123.490437693841	398.694186265453	325.378192201856	1022.353776654344	296.294822229842	270.834355401344	1045.568778065187	183.231392161765	349.834528618371	1164.372077222811	416.725973665628	544.278942231518	1046.789775168001	384.580170470428	616.464715121413	1025.478300188866	273.772336297391	574.655401974293	820.628887533836	216.121396261477	568.158982231289	884.153322108684	156.287445428374	637.276181653463	1056.555915238480	44.175733455872	617.875462385508	894.606251229067	40.021084848268	386.240838632687	972.333458453743	36.418800698936	309.457761959325	1055.610333872909	95.603901745129	340.728069432645	1184.322735375958	40.527102650229	316.994418660183	1205.800766611541	1114.945985184468	59.258822184879	1435.883846749154	988.215649073557	53.560956714268	922.847032240528	1101.285364944382	657.423289009511	899.332114400025	840.333384803263	671.850977266531	
108	35.688642857143	1015.592361768671	153.459595458697	598.989254532245	857.918227925675	995.584317939383	391.498936931369	1089.086259237455	1415.819374381983	220.533273228256	1162.582680726071	1341.789179049483	394.141193441150	1063.454446753019	1423.734099192641	554.016970934214	1051.230665476473	1479.826841236695	375.277593623434	1080.956556861303	931.824713560182	523.045859677754	1082.041146570565	943.983168984660	248.646947180959	1167.110791579962	767.666363137145	495.065282832569	1134.608399650412	649.509097793535	578.314995462919	1221.631551036799	606.518518578679	497.730590210199	1244.715114740623	496.865543875991	527.829330836014	1140.376019380173	741.009821525059	294.300441101991	1068.595441268076	612.607459863682	240.935612046730	1154.014217072488	547.977360383452	318.200725381400	1159.004136157898	473.516752156121	330.899926118670	1117.886807131708	399.028627774809	325.525557933539	1017.393457022710	296.322741102156	270.608192159227	1040.505787543912	183.390764047245	349.825954443607	1171.523427558817	420.729109358807	544.343253620169	1056.716787410604	382.281260804415	616.647199882069	1042.319000265806	270.737010518899	575.270105902287	842.771954991790	200.338655885110	568.748839803050	909.566853451592	145.665067988051	638.240800308267	1087.548360820958	45.884614565147	619.603414210444	889.865557454634	39.965283574905	386.169466785491	967.637966026442	36.384390844146	309.372480093907	1050.885175618658	95.597562210984	340.673212278411	1179.643695612733	40.556681542073	316.998419182026	1216.344449883826	1121.802685775861	58.534938078710	1453.206242412265	1008.005537269654	54.349438528713	902.935113166585	1111.711993270985	653.014856947851	865.930401892823	852.083916581402	665.344579454651	
109	35.711714285714	1041.655012300790	148.690316829594	601.135778944357	857.416866647395	997.716055559371	387.610657620111	1092.160699004713	1417.705098983663	220.895472400382	1161.646708063834	1344.231445350109	396.290996959095	1058.808201682074	1426.764182997708	553.441356412309	1050.597118620135	1481.833348695438	374.718925262390	1078.055630324310	934.275492665678	523.586786588038	1083.781397699175	945.707106421987	249.388300362077	1164.499693392065	771.042404838773	495.683791133873	1132.538489607482	652.727781280771	578.673998018108	1219.730938715234	610.383172493939	498.214101984330	1245.193616501989	502.950936197112	528.255413738194	1138.707603983044	740.810663621979	294.825822643651	1065.386150063308	613.443982684804	240.505417349541	1148.801058259115	547.646341932362	318.545467741617	1152.673899918045	473.679818324851	331.385143647981	1111.790059575561	399.580884983823	325.551072287443	1012.048604369823	296.431639708224	270.311883206143	1035.259975297034	183.659600923487	349.758281852591	1176.716724918337	424.264832122060	545.353717531257	1065.578151982212	378.464687826076	617.833496505418	1059.399376241601	266.435129444379	576.841003414919	866.733175247112	181.325333092821	570.272620624990	937.105906379799	132.708401760324	640.103870245233	1121.047453986566	47.830576735614	622.251089422034	885.126814905926	39.910406829945	386.096552668406	962.938306856183	36.341387587587	309.286592945728	1046.154102785692	95.596850043132	340.600573796957	1174.962124090032	40.590804610298	317.008490859612	1226.120085292661	1128.667856163228	58.464363485076	1468.738676791471	1027.512196007603	56.238285281393	885.577146847663	1122.187709211292	648.555352361169	837.421078505901	864.152299663491	658.576665925282	
110	35.734785714286	1068.714949896632	143.283253517743	604.097597106235	857.101609498538	1000.027995752439	383.971191408704	1095.116529639402	1419.664371362853	221.502054005187	1160.711619260187	1346.784512377851	398.538360963464	1054.420220043510	1429.988177333215	552.959915885821	1049.959060099101	1483.962554000964	374.319279338918	1075.120095142478	936.712565525574	524.497373312774	1085.684412750256	947.521675265656	250.517574516500	1160.962162448793	773.533613191586	497.172818858706	1128.477914349184	655.286882524419	579.777973822775	1215.811316882807	613.132832874487	499.719521964911	1243.182458060037	508.335649106488	529.606110500178	1136.850200130336	740.674186033057	295.595573791002	1061.866550516289	614.468412135079	240.089572556388	1143.190490662818	547.380270242354	318.802987332566	1145.863179999845	473.964984471423	331.715686932950	1105.343433936769	400.282861918562	325.423139691833	1006.404566723654	296.592212882047	269.933841637770	1029.884137292042	184.003127152623	349.625251854610	1180.102047458895	427.287908871362	547.228653899204	1073.499035345768	373.482533049290	619.968859265209	1076.451890983036	261.375050869616	579.282590321518	892.140468330183	160.483916332616	572.688190810846	966.144103536953	118.499110738204	642.772931799969	1155.905908546269	50.196774520443	625.634476884973	880.394045645465	39.855581985716	386.023311662982	958.235704968330	36.289102964999	309.200365955828	1041.419029497547	95.596887449760	340.512974381598	1170.278504285689	40.627093316226	317.023475579839	1235.230267405801	1135.361236012410	58.996579890009	1482.631404766619	1046.402166335807	59.082954526121	870.819111112191	1132.189282574936	644.180016705913	813.809308359366	875.734596016173	651.754096060854	
111	35.757857142857	1096.011541964032	137.826710370328	607.679731685811	856.934274741816	1002.364796022122	380.677897087625	1097.941606747283	1421.544532410665	222.330579275642	1159.803188163176	1349.270770560929	400.853106864507	1050.358419891338	1433.212566483225	552.601908620268	1049.363233070016	1486.067038084614	374.074966333339	1072.206673839937	938.992171918557	525.722900767802	1087.656330861605	949.304262434824	251.957254144170	1156.734503162859	775.120645830670	499.416127563944	1122.786515162992	657.125202010826	581.548188625674	1210.279013407878	614.766038864838	502.162563673756	1239.079318985369	512.908872241549	531.761687997064	1134.832631264394	740.548362068850	296.548592073910	1058.123003986639	615.594996656263	239.685373663867	1137.340032015868	547.143207688242	318.949425247937	1138.764334002198	474.311467826663	331.872147437624	1098.710535208522	401.060992633517	325.146804822396	1000.567580383013	296.778485421198	269.486165664636	1024.440575997310	184.384620348966	349.434845831981	1181.891646829691	429.797405819861	549.822355080052	1080.606468679398	367.759429141495	622.939372422570	1093.144528580371	256.092245550402	582.445470064847	918.409264816604	139.282796473823	575.910781794754	995.883961545203	104.135423316406	646.102442513781	1190.873515008166	53.089135777775	629.470593639472	875.670142373566	39.801283642000	385.952175896294	953.531524520152	36.229346565530	309.115923396941	1036.682422935523	95.593710872223	340.416385188444	1165.592939690183	40.662618862466	317.041964048006	1243.751050817635	1141.714344232180	60.089733354289	1495.031119333187	1064.378599290731	62.727969037714	858.616036283593	1141.257856021244	640.029457889194	794.946927153724	886.167105331996	645.088415494740	
